# xmcd
#
# Track frame offsets:
#	150
#	13730
#	26068
#	38290
#	50968
#	62706
#	75705
#	95297
#	108590
#	120629
#	132310
#	142239
#	154000
#	166210
#	178702
#	190576
#	203288
#	213679
#	228671
#	240897
#	253260
#	264393
#	274185
#	286468
#	298619
#	310054
#	322666
#	336395
#
# Disc length: 4645 seconds
#
# Revision: 0
# Processed by: cddbd v1.5.2PL0 Copyright (c) Steve Scherf et al.
# Submitted via: EasyCDDAExtractor 15.2.1.1
#
DISCID=9712231c
DTITLE=Ray Price - The original Outlaw
DYEAR=2015
DGENRE=Country
TTITLE0=Heartaches by the number
TTITLE1=Same old Me
TTITLE2=Release Me
TTITLE3=One more time
TTITLE4=My shoes keep walking back to You
TTITLE5=I'll be there
TTITLE6=San Antonio Rose
TTITLE7=A Maiden's Prayer
TTITLE8=My confession
TTITLE9=Whose heart are You breaking now
TTITLE10=Roly Poly
TTITLE11=Bubbles in my beer
TTITLE12=Home is San Antone
TTITLE13=You don't love Me
TTITLE14=You don't care what happens to Me
TTITLE15=Time changes everything
TTITLE16=The kind of love I can't forget
TTITLE17=Hang your head in shame
TTITLE18=Talk to your heart
TTITLE19=Don't let the stars get in your eyes
TTITLE20=I'll be there if You ever want Me
TTITLE21=If You don't somebody else will
TTITLE22=Run boy
TTITLE23=Wasted words
TTITLE24=Curtain in the Window
TTITLE25=That's what it's like to be lonesome
TTITLE26=Under your spell again
TTITLE27=I wish I could fall in love today
EXTD=
EXTT0=
EXTT1=
EXTT2=
EXTT3=
EXTT4=
EXTT5=
EXTT6=
EXTT7=
EXTT8=
EXTT9=
EXTT10=
EXTT11=
EXTT12=
EXTT13=
EXTT14=
EXTT15=
EXTT16=
EXTT17=
EXTT18=
EXTT19=
EXTT20=
EXTT21=
EXTT22=
EXTT23=
EXTT24=
EXTT25=
EXTT26=
EXTT27=
PLAYORDER=
